<svg version="1.1" id="Layer_1" xmlns="http://www.w3.org/2000/svg" xmlns:xlink="http://www.w3.org/1999/xlink" x="0px" y="0px"
	 width="100%" viewBox="0 0 1024 1024" enable-background="new 0 0 1024 1024" xml:space="preserve">
<path fill="#000000" opacity="1.000000" stroke="none" 
	d="
M473.000000,281.910339 
	C521.326111,281.912292 569.152344,281.869019 616.978088,281.997925 
	C621.118042,282.009094 624.153442,280.776703 627.239563,278.070526 
	C673.415955,237.578857 742.574524,249.051315 773.283203,302.275604 
	C783.591675,320.142181 786.538635,339.591553 784.633301,359.869934 
	C782.053101,387.332489 770.659241,410.271759 749.036560,427.798218 
	C746.692322,429.698334 747.284424,432.333771 747.283630,434.758331 
	C747.267334,481.583740 747.299561,528.409180 747.301208,575.234558 
	C747.302246,603.563293 747.341125,631.892334 747.233643,660.220703 
	C747.052063,708.064270 717.461304,746.567749 671.226624,759.002563 
	C662.527527,761.342041 653.511475,762.226074 644.517944,762.232971 
	C556.032471,762.300415 467.542297,762.792969 379.063202,762.031677 
	C330.396759,761.612976 289.322052,730.138489 279.267517,680.356262 
	C278.282074,675.476868 277.627075,670.539917 277.629486,665.503601 
	C277.674774,571.187866 277.609955,476.872070 277.686066,382.556396 
	C277.719360,341.331238 303.888916,303.460785 342.405670,288.898071 
	C354.625122,284.278107 367.436676,281.954498 380.515564,281.902039 
	C411.176514,281.779053 441.838470,281.892853 473.000000,281.910339 
M458.388062,448.887482 
	C502.238373,404.586609 546.088684,360.285767 590.067688,315.854919 
	C587.619568,314.123108 585.736633,314.395905 583.935669,314.395172 
	C515.779236,314.367523 447.621124,314.089142 379.467285,314.504517 
	C357.898285,314.635986 339.802399,323.779358 325.999939,340.610901 
	C314.702362,354.387817 310.787292,370.457123 310.810944,388.078156 
	C310.932281,478.400085 310.764160,568.722412 310.720642,659.044556 
	C310.716339,667.928711 311.706024,676.655273 315.305542,684.925049 
	C318.265778,691.726135 321.348083,698.432251 327.068665,704.307190 
	C327.777405,701.750977 328.361176,699.881958 328.812073,697.981445 
	C331.997742,684.554688 335.136810,671.116821 338.327118,657.691162 
	C346.169769,624.686951 353.862579,591.645447 362.023804,558.720093 
	C363.737457,551.806519 363.840454,544.230164 369.557800,538.499146 
	C399.096100,508.889954 428.460083,479.106934 458.388062,448.887482 
M508.499939,728.688110 
	C552.498474,728.685364 596.497009,728.685913 640.495544,728.675293 
	C645.319580,728.674133 650.104065,728.474670 654.929871,727.874817 
	C683.400024,724.335938 707.359314,702.226624 712.765808,673.946228 
	C714.903442,662.764648 714.429565,651.358826 714.486145,640.070923 
	C714.648987,607.591187 713.856140,575.103638 714.257263,542.629333 
	C714.522827,521.134766 714.387451,499.642670 714.622620,478.150909 
	C714.648499,475.787415 715.070801,473.248047 713.370422,471.141876 
	C710.876953,472.073090 709.603271,473.915863 708.115601,475.424164 
	C685.773315,498.077148 663.602173,520.900391 641.137451,543.430969 
	C601.136719,583.549011 561.950195,624.473694 521.483704,664.130005 
	C519.156616,666.410522 516.616455,667.959473 513.420227,668.796082 
	C492.651642,674.232117 471.943024,679.897827 451.165985,685.300720 
	C416.522003,694.309631 381.869995,703.284424 347.479553,713.231567 
	C345.500488,713.803955 343.229706,713.911804 341.859283,715.837708 
	C342.925446,718.021973 344.869293,718.721802 346.584961,719.654053 
	C357.780518,725.737366 369.721130,728.740723 382.503784,728.717285 
	C424.169037,728.640991 465.834503,728.688049 508.499939,728.688110 
M603.444153,533.944519 
	C647.976746,488.568024 692.562317,443.242828 736.508911,397.210693 
	C706.115479,367.077301 676.016052,337.235382 645.505615,306.986023 
	C566.183777,387.127625 486.376251,467.759949 405.780884,549.188232 
	C416.360931,551.132202 425.737488,553.134216 435.208313,554.466431 
	C439.370361,555.051880 442.266296,556.988098 445.019165,559.759155 
	C461.923737,576.775940 478.812988,593.808411 495.802917,610.739624 
	C501.289673,616.207458 507.064911,621.385864 512.891663,626.869324 
	C543.231323,595.733398 573.089966,565.091187 603.444153,533.944519 
M451.390381,649.701050 
	C460.875824,647.079163 470.563995,645.131104 480.449402,641.632812 
	C478.860077,639.933289 477.885223,638.834961 476.852051,637.794495 
	C460.545380,621.372498 444.196320,604.992249 427.957672,588.503235 
	C425.628448,586.138123 423.202240,584.658203 419.857330,584.141724 
	C413.297241,583.128967 406.806854,581.670654 400.278595,580.444763 
	C393.005859,579.079041 392.998047,579.101196 390.954102,586.522156 
	C390.689636,587.482300 390.484283,588.458618 390.249878,589.427063 
	C385.162811,610.444153 380.070831,631.460144 374.991119,652.479004 
	C373.490936,658.686584 372.025116,664.902405 370.372345,671.832397 
	C397.755341,664.336365 424.171997,657.104858 451.390381,649.701050 
M734.554626,349.946533 
	C739.544617,354.729553 743.893066,360.206635 749.597168,364.459320 
	C757.079773,346.477051 751.259094,318.352997 730.850098,300.698822 
	C714.661804,286.695679 687.934753,281.307922 674.323120,289.075500 
	C694.815063,308.819305 714.219971,329.341553 734.554626,349.946533 
z"/>
<path fill="#000000" opacity="1.000000" stroke="none" 
	d="
M611.504333,453.497253 
	C593.010193,472.214752 574.749695,490.672211 556.494080,509.134613 
	C542.455261,523.332397 528.440674,537.554199 514.377441,551.727722 
	C509.603638,556.539001 504.489594,560.969116 497.025757,559.853210 
	C490.573303,558.888550 485.956482,555.195251 483.931244,548.946228 
	C481.717255,542.114746 483.705475,536.202759 488.754364,531.199646 
	C502.707336,517.373352 516.714661,503.600586 530.556396,489.663666 
	C562.232727,457.769653 593.843994,425.810944 625.428955,393.826416 
	C630.834839,388.352112 636.523560,384.441376 644.836792,386.628632 
	C654.781128,389.245026 661.081482,403.826752 652.676025,412.296173 
	C642.713257,422.334747 632.643555,432.267212 622.632629,442.258179 
	C618.983398,445.900146 615.369873,449.577850 611.504333,453.497253 
z"/>
</svg>